<?xml version="1.0" encoding="utf-8"?>
<!-- Svg Vector Icons : http://www.onlinewebfonts.com/icon -->
<!DOCTYPE svg PUBLIC "-//W3C//DTD SVG 1.1//EN" "http://www.w3.org/Graphics/SVG/1.1/DTD/svg11.dtd">
<svg version="1.1" xmlns="http://www.w3.org/2000/svg" xmlns:xlink="http://www.w3.org/1999/xlink" x="0px" y="0px" viewBox="0 0 256 256" enable-background="new 0 0 256 256" xml:space="preserve">
<metadata> Svg Vector Icons : http://www.onlinewebfonts.com/icon </metadata>
<g><g><path fill="#000000" d="M117.6,10.4c-27.2,2.4-53.3,14.6-72.9,34.2c-27.1,27.1-39.3,65-33,102.6c7.6,45.9,42,83.4,87.1,95c46.1,11.8,94.8-5.2,123.4-43.3c35.5-47.1,30.9-112.6-10.8-154.3C186.6,19.9,152.5,7.4,117.6,10.4L117.6,10.4z M141.6,24.3c18.3,2.4,35.1,9.4,50.4,21c5,3.8,14.9,13.7,18.8,18.8c11.7,15.4,18.7,32.6,21.2,51.9c0.6,5.1,0.6,18.9,0,24c-3,24.1-13.1,44.8-30.1,61.8c-3.2,3.3-7.7,7.3-9.9,9c-15.4,11.7-32.8,18.8-51.9,21.2c-5.8,0.7-19.4,0.6-25.4-0.2c-24.2-3.3-45.6-14.2-62.4-31.8c-15.5-16.2-25.3-37.1-28.1-59.9c-0.6-5.1-0.6-18.9,0-24c2.4-19.2,9.4-36.3,21.2-51.9c4.1-5.4,13.8-15,19.5-19.3c17-12.7,34.3-19.2,56.9-21.2C125.2,23.3,136.9,23.8,141.6,24.3L141.6,24.3z"/><path fill="#000000" d="M82.4,137.5v59.4h7.9h7.9v-26.4v-26.4l12.9,0.2c14.2,0.2,15,0.3,19.7,3c6.1,3.4,11.1,10,28.6,37.4l7.8,12.3h9.8c5.4,0,9.8-0.2,9.7-0.4c-0.4-1.1-21.9-34.2-24.1-37.2c-5.8-7.8-10.2-11.8-16.1-15c-2.2-1.1-2.3-1.3-1.4-1.5c0.6-0.1,2.4-0.5,4.1-0.9c6.6-1.4,12.8-4,17.1-7.4c11.2-8.9,14.3-26.1,7.1-39.9c-3.6-6.8-8.9-11.4-16.1-13.7c-7.1-2.3-14.8-2.7-48.9-2.8H82.4V137.5L82.4,137.5z M146.2,92.5c8.2,2.3,13.3,7.6,14.5,15.2c1.3,7.6-2.8,15.8-9.6,19.5c-5.5,2.9-11.8,3.5-35.8,3.5H98.1v-19.7V91.4l22.5,0.1C142.4,91.7,143.3,91.7,146.2,92.5L146.2,92.5z"/></g></g>
</svg>